<?xml version="1.0" encoding="UTF-8" standalone="no"?>
<!-- Created with Inkscape (http://www.inkscape.org/) -->

<svg
   width="1553.3859"
   height="272.12598"
   viewBox="0 0 411.00001 71.999998"
   version="1.1"
   id="svg1"
   xml:space="preserve"
   inkscape:version="1.3.2 (091e20e, 2023-11-25)"
   sodipodi:docname="vet1.svg"
   xmlns:inkscape="http://www.inkscape.org/namespaces/inkscape"
   xmlns:sodipodi="http://sodipodi.sourceforge.net/DTD/sodipodi-0.dtd"
   xmlns="http://www.w3.org/2000/svg"
   xmlns:svg="http://www.w3.org/2000/svg"><sodipodi:namedview
     id="namedview1"
     pagecolor="#ffffff"
     bordercolor="#000000"
     borderopacity="0.25"
     inkscape:showpageshadow="2"
     inkscape:pageopacity="0.0"
     inkscape:pagecheckerboard="0"
     inkscape:deskcolor="#d1d1d1"
     inkscape:document-units="mm"
     inkscape:zoom="0.33589188"
     inkscape:cx="613.29259"
     inkscape:cy="130.99453"
     inkscape:window-width="1312"
     inkscape:window-height="689"
     inkscape:window-x="0"
     inkscape:window-y="38"
     inkscape:window-maximized="0"
     inkscape:current-layer="layer1" /><defs
     id="defs1"><rect
       x="337.70718"
       y="85.615906"
       width="1093.981"
       height="123.66742"
       id="rect1" /></defs><g
     inkscape:label="Layer 1"
     inkscape:groupmode="layer"
     id="layer1"><g
       id="g1"
       transform="matrix(0.08318158,0,0,0.10844859,9.0016968,11.530771)"><path
         d="m 1,421.53481 h 887 v -2 H 1 c -0.55228,0 -1,0.44772 -1,1 v 0 c 0,0.55228 0.44771,1 1,1 z"
         fill="#3f3d56"
         id="path1" /><path
         d="m 406,438.53481 c 5,24 33.5,-5.5 33.5,-5.5 l 34,-4 c 0,0 21.5,0.5 35.5,11.5 14,11 23.5,-3.5 23.5,-3.5 15.77283,5.2576 35.09692,5.23627 51.83264,3.55252 24.11597,-2.42627 43.44604,-21.04041 46.76044,-45.05038 18.69678,-135.44147 -84.09314,-202.00211 -84.09314,-202.00211 l -30,-81 c 0,0 9.5,-23.5 12.5,-44.5 3,-21 -19,-41 -46,-61 -11.8125,-8.75 -25.34766,-8.12109 -36.83716,-4.64502 -12.88892,3.89946 -24.13214,11.9183 -32.4397,22.51616 -6.88251,8.77995 -18.68735,21.21468 -31.66315,23.36885 -4.48999,0.73999 -8.91998,2.52002 -13.06,5.76001 -4.28003,3.34998 -6.16998,8.94 -6.22998,15.89001 -0.32001,30.35999 24.75,66.90998 46.72998,72.60999 27,7 12.5,73.5 12.5,73.5 -44,62 -13,131 -13,131 l -8,56 c 0,0 -0.5,11.5 4.5,35.5 l 6e-5,-3e-5 z"
         fill="#3f3d56"
         id="path2" /><path
         d="m 553,309.53481 -11,137 c 0,0 15,38 -36,36 -51,-2 -21,-80 -21,-80 l 16,-102"
         fill="#3f3d56"
         id="path3" /><path
         d="m 509.79492,483.61099 c -1.24707,0 -2.52344,-0.0254 -3.83398,-0.0772 -11.29004,-0.44238 -19.60352,-4.60059 -24.71094,-12.3584 -14.60254,-22.18164 1.63867,-65.90625 2.77832,-68.89941 l 15.9834,-101.89648 c 0.0859,-0.5459 0.59375,-0.91309 1.14355,-0.83301 0.54492,0.0859 0.91797,0.59766 0.83301,1.14355 l -16,102 c -0.0117,0.0693 -0.0293,0.1377 -0.0547,0.2041 -0.1748,0.45215 -17.25195,45.55566 -3.01172,67.18359 4.73242,7.18652 12.50977,11.04199 23.11719,11.45801 16.65234,0.64941 27.85254,-2.90332 33.29785,-10.56836 7.12402,-10.02832 1.78711,-23.92676 1.73242,-24.06641 -0.0557,-0.1416 -0.0781,-0.29492 -0.0664,-0.44629 l 11,-137 c 0.0439,-0.5498 0.5166,-0.95117 1.07715,-0.91699 0.55078,0.0449 0.96094,0.52637 0.91699,1.07715 l -10.98242,136.77539 c 0.72656,1.96094 5.28223,15.4043 -2.03906,25.72363 -5.41699,7.63574 -15.89844,11.49707 -31.18066,11.49707 z"
         fill="#2f2e41"
         id="path4" /><path
         d="m 462,337.53481 c 0,0 3,127 -60,124 -63,-3 -6,-43 -6,-43 l 5.5,-15.5"
         fill="#3f3d56"
         id="path5" /><path
         d="m 404.16211,462.58657 c -0.73145,0 -1.4668,-0.0176 -2.20996,-0.0527 -17.98828,-0.85645 -28.15186,-4.88672 -30.20801,-11.97852 -3.7041,-12.7793 20.43945,-30.52148 23.41895,-32.65332 l 5.39453,-15.20117 c 0.18457,-0.52148 0.75586,-0.79297 1.27637,-0.6084 0.52051,0.18457 0.79297,0.75586 0.6084,1.27637 l -5.5,15.5 c -0.0693,0.19629 -0.19824,0.36523 -0.36816,0.48438 -0.26367,0.18555 -26.37744,18.68457 -22.90869,30.64551 1.79248,6.18066 11.34131,9.72559 28.38232,10.53711 11.34863,0.5459 21.29688,-3.27051 29.55078,-11.3291 30.95215,-30.21582 29.4209,-110.83789 29.40137,-111.64844 -0.0127,-0.55176 0.42383,-1.00977 0.97656,-1.02344 0.52246,9.8e-4 1.00977,0.4248 1.02344,0.97656 0.0791,3.3457 1.57227,82.29785 -30.00293,113.125 -8.12793,7.93555 -17.82031,11.9502 -28.83496,11.9502 z"
         fill="#2f2e41"
         id="path6" /><path
         d="M 363.27002,69.92484 C 370.45001,70.78483 381.69,70.74479 391,64.53483 c 9.96997,-6.65002 -0.38,-12.85004 -8.44,-16.26001 -4.48999,0.73999 -8.91998,2.52002 -13.06,5.76001 -4.28003,3.34998 -6.16998,8.94 -6.22998,15.89001 z"
         fill="#2f2e41"
         id="path7" /><path
         d="m 479.2984,51.94388 c 0,0 -17.44968,-44.81639 7.54245,-45.4435 24.99213,-0.62711 44.73257,38.20994 44.73257,38.20994 0,0 62.72797,114.34248 -23.21378,108.17637 -85.94171,-6.16615 -44.87375,-51.81067 -44.87375,-51.81067 0,0 19.60165,-24.09928 15.81253,-49.13211 h -3e-5 v -2e-5 0 c 0,0 0,-2e-5 0,-2e-5 z"
         fill="#2f2e41"
         id="path8" /><path
         d="m 575.03857,386.85064 c 11.06787,4.92365 22.63171,9.948 34.73578,9.46738 12.10407,-0.48062 24.84155,-8.27557 26.72772,-20.24146 0.97363,-6.17697 -0.95746,-12.80396 1.40759,-18.59268 3.18213,-7.78867 13.44672,-10.79233 21.42578,-8.12323 7.97906,2.6691 13.84076,9.55188 18.04358,16.84058 7.86328,13.63672 11.0141,31.53461 2.58307,44.82779 -7.30878,11.52368 -21.17084,16.73105 -34.06519,21.19748 -17.17535,5.94928 -36.35114,11.854 -52.99396,4.54617 -16.7381,-7.34964 -25.85565,-28.58435 -19.65753,-45.7821"
         fill="#3f3d56"
         id="path9" /><path
         d="m 538.1142,170.92143 c 0,0 22,11 11,23 -11,12 -79,46 -104,41 -25,-5 -31,-20 -31,-24 0,-4 1.88583,-52.38661 9.88583,-50.38661 8,2 58.11417,47.38661 114.11417,10.38661 z"
         fill="#6c63ff"
         id="path10" /></g><text
       xml:space="preserve"
       transform="matrix(0.35952717,0,0,0.40050092,7.8476008,-20.818246)"
       id="text1"
       style="white-space:pre;shape-inside:url(#rect1);display:inline;fill:#000000"><tspan
         x="337.70703"
         y="163.46739"
         id="tspan3"><tspan
           style="font-size:85.3333px;font-family:Sans;-inkscape-font-specification:'Sans, Normal'"
           id="tspan2">Vet Practise</tspan></tspan></text><g
       id="g2"
       transform="matrix(0.07918906,0,0,0.1448515,329.1531,12.246888)"><path
         d="m 560.17,337.74 -141.49,-4.02 c 0,0 10.65,-63.71 -23.52,-81.39 -23.29,-12.06 -43.96,-68.39 -38.08,-106.72 0.08,-0.51 0.16,-1.02 0.25,-1.52 2.98,-17.16 11.5,-30.45 27.79,-34.06 52.66,-11.66 90.24,-2.62 90.24,-2.62 0,0 8.7,0.11 21.59,2.53 0.46,0.08 0.92,0.17 1.38,0.27 36.49,7.15 103.94,32.61 106.86,123.01 4.02,124.2 -45.02,104.5 -45.02,104.5 z"
         fill="#3f3d56"
         id="path1-5" /><path
         d="m 496.95,109.95 c -0.24,6.48 -1.71,12.92 -4.39,19.04 -5.56,12.69 -15.7,22.38 -28.54,27.29 -38.46,14.72 -83.34,0.12 -106.04,-15.71 -0.09,0.5 -1.89,9.99 -1.97,10.5 10.05,6.88 59.24,13.51 68.57,13.51 14.17,0 27.81,-2.35 39.94,-7 13.19,-5.05 23.6,-15.01 29.31,-28.04 2.73,-6.22 4.23,-12.75 4.5,-19.33 -0.46,-0.1 -0.92,-0.19 -1.38,-0.27 0,0 0,0 0,0 z"
         fill="#6c63ff"
         id="path2-4" /><path
         d="M 507.41,118.2 484.86,61.49 c 0,0 27.07,-46.4 5.8,-51.55 -21.27,-5.16 -43.18,22.55 -43.18,22.55 0,0 -40.6,-14.18 -56.06,-2.58 0,0 -25.78,-36.09 -41.24,-29 -15.47,7.09 5.5,58.18 5.5,58.18 0,0 -31.92,46.86 -7.43,73.92 24.49,27.07 116.64,48.98 159.17,-14.82 v 0 z"
         fill="#3f3d56"
         id="path3-3" /><path
         d="m 1,336.08 h 887 v -2 H 1 c -0.55,0 -1,0.45 -1,1 v 0 c 0,0.55 0.45,1 1,1 z"
         fill="#3f3d56"
         id="path4-6" /><path
         d="m 555.78,303.8 c 7.68,3.42 15.7,6.9 24.1,6.57 8.4,-0.33 17.23,-5.74 18.54,-14.04 0.68,-4.29 -0.66,-8.88 0.98,-12.9 2.21,-5.4 9.33,-7.49 14.86,-5.64 5.54,1.85 9.6,6.63 12.52,11.68 5.46,9.46 7.64,21.88 1.79,31.1 -5.07,7.99 -14.69,11.61 -23.63,14.71 -11.92,4.13 -25.22,8.22 -36.77,3.15 -11.61,-5.1 -17.94,-19.83 -13.64,-31.76"
         fill="#3f3d56"
         id="path5-5" /><path
         d="m 428.74,92.71 c 0,0 -13.88,-5.55 -22.89,1.39 l 10.41,15.96 c 0,0 12.49,-17.34 12.49,-17.34 z"
         fill="#6c63ff"
         id="path6-9" /><path
         d="m 355.89,165.55 25.67,136.68 c 0,0 -38.85,39.55 11.1,38.85 49.95,-0.69 35.38,-26.36 35.38,-26.36 L 412.08,196.08"
         fill="#3f3d56"
         id="path7-5" /><path
         d="m 391.4,342.09 c -13.53,0 -21.71,-3.1 -24.33,-9.23 -4.77,-11.16 10.76,-28.17 13.42,-30.97 l -17.26,-102.18 1.97,-0.33 17.43,103.18 -0.36,0.36 c -0.18,0.18 -17.94,18.45 -13.36,29.15 2.35,5.5 10.32,8.19 23.74,8 18.65,-0.26 30.67,-4.17 34.77,-11.3 3.69,-6.42 -0.21,-13.5 -0.25,-13.57 l -0.09,-0.17 -0.03,-0.19 -11.1,-82.56 1.98,-0.27 11.08,82.38 c 0.66,1.25 4.11,8.46 0.16,15.36 -4.53,7.9 -16.81,12.05 -36.49,12.32 -0.43,0 -0.85,0 -1.27,0 z"
         fill="#2f2e41"
         id="path8-4" /><path
         d="m 421.1,165.55 25.67,136.68 c 0,0 -38.85,39.55 11.1,38.85 49.95,-0.69 35.38,-26.36 35.38,-26.36 L 477.29,196.08"
         fill="#3f3d56"
         id="path9-9" /><path
         d="m 456.61,342.09 c -13.53,0 -21.71,-3.1 -24.33,-9.23 -4.77,-11.14 10.73,-28.13 13.41,-30.96 l -10.31,-55 1.97,-0.37 10.5,56.02 -0.37,0.37 c -0.18,0.18 -17.94,18.45 -13.36,29.15 2.35,5.5 10.33,8.2 23.74,8 18.66,-0.26 30.69,-4.17 34.78,-11.32 3.69,-6.44 -0.22,-13.48 -0.26,-13.55 l -0.1,-0.17 -15.98,-118.83 1.98,-0.27 15.93,118.46 c 0.66,1.25 4.11,8.46 0.16,15.36 -4.53,7.9 -16.81,12.05 -36.49,12.32 -0.43,0 -0.85,0 -1.27,0 z"
         fill="#2f2e41"
         id="path10-1" /></g></g></svg>
